<svg
  xmlns="http://www.w3.org/2000/svg"
  width="29"
  height="29"
  viewBox="0 0 29 29"
>
  <g fill="none" fill-rule="evenodd">
    <g>
      <g>
        <g>
          <g>
            <path
              fill="#230050"
              fill-rule="nonzero"
              d="M8.48 15.023v-.738H6.3v.738h2.18zm3.564 2.303V10.9h-.66l-1.683 1.314.422.54.65-.531c.062-.053.115-.099.159-.139l.125-.112c.04-.035.078-.071.117-.11.038-.038.082-.083.131-.136l-.01.345-.014.409c-.004.142-.007.285-.009.428l-.002.405v4.012h.774zm4.306.088c.372 0 .689-.075.95-.224.26-.15.473-.367.639-.65.165-.285.286-.632.36-1.042.075-.41.112-.875.112-1.393 0-.522-.042-.988-.127-1.398-.085-.41-.213-.756-.382-1.04-.17-.282-.384-.497-.642-.645-.258-.148-.561-.222-.91-.222-.369 0-.683.075-.942.224-.26.15-.47.366-.633.648-.163.283-.281.63-.356 1.04-.075.41-.112.874-.112 1.393 0 .518.042.983.125 1.393.084.41.21.757.378 1.041.168.284.38.501.637.65.257.15.558.225.903.225zm0-.681c-.225 0-.416-.055-.573-.165-.157-.11-.284-.274-.38-.492-.097-.219-.167-.492-.211-.82-.044-.328-.066-.712-.066-1.151 0-.44.022-.824.066-1.152.044-.328.114-.6.21-.817.097-.217.224-.38.38-.488.158-.108.349-.162.574-.162.226 0 .418.054.576.162.158.109.288.271.389.488.101.217.174.49.22.817.045.328.068.712.068 1.152 0 .442-.023.828-.068 1.158-.046.33-.119.602-.22.82-.101.216-.23.379-.389.487-.158.108-.35.163-.576.163zm4.465.68c.61 0 1.083-.123 1.42-.37.336-.248.505-.597.505-1.049 0-.225-.045-.419-.136-.58-.091-.16-.232-.306-.424-.435-.192-.129-.489-.268-.89-.417-.536-.205-.878-.366-1.024-.481-.147-.116-.22-.262-.22-.438 0-.181.085-.324.255-.428.17-.104.419-.156.747-.156.393 0 .834.102 1.323.307l.268-.628c-.478-.217-.99-.325-1.538-.325-.563 0-1.005.114-1.327.343-.323.228-.484.54-.484.936 0 .222.043.411.13.566.086.156.222.296.406.42.185.125.504.275.958.45.446.17.756.321.93.453.174.132.261.293.261.484 0 .216-.09.39-.272.518-.182.13-.472.194-.87.194-.492 0-1.004-.13-1.534-.387v.72c.375.203.88.304 1.516.304z"
              transform="translate(-183 -1541) translate(-298 1204) translate(390 216) translate(91 121)"
            />
            <path
              stroke="#230050"
              d="M14.4.5c3.838 0 7.313 1.556 9.829 4.071 2.515 2.516 4.071 5.99 4.071 9.829 0 3.838-1.556 7.313-4.071 9.829-2.516 2.515-5.99 4.071-9.829 4.071-3.838 0-7.313-1.556-9.829-4.071C2.056 21.713.5 18.239.5 14.4c0-3.838 1.556-7.313 4.071-9.829C7.087 2.056 10.561.5 14.4.5z"
              transform="translate(-183 -1541) translate(-298 1204) translate(390 216) translate(91 121)"
            />
          </g>
        </g>
      </g>
    </g>
  </g>
</svg>
