<svg xmlns="http://www.w3.org/2000/svg" width="29" height="29" viewBox="0 0 29 29">
    <g fill="none" fill-rule="evenodd">
        <g>
            <g>
                <g>
                    <g transform="translate(-224 -1541) translate(-298 1204) translate(390 216) translate(132 121)">
                        <path fill="#FFF" fill-rule="nonzero" d="M7.76 16.451v-1.696h1.7v-.66h-1.7v-1.704H7.1v1.705H5.4v.66h1.7v1.695h.66zm5.273.875V10.9h-.659l-1.683 1.314.422.54.65-.531c.062-.053.115-.099.158-.139l.126-.112c.04-.035.078-.071.116-.11.038-.038.082-.083.132-.136l-.011.345-.013.409c-.005.142-.007.285-.009.428l-.002.405v4.012h.773zm4.307.088c.372 0 .688-.075.95-.224.26-.15.473-.367.639-.65.165-.285.285-.632.36-1.042.075-.41.112-.875.112-1.393 0-.522-.043-.988-.127-1.398-.085-.41-.213-.756-.383-1.04-.17-.282-.384-.497-.641-.645-.258-.148-.561-.222-.91-.222-.37 0-.683.075-.943.224-.259.15-.47.366-.632.648-.163.283-.282.63-.356 1.04-.075.41-.113.874-.113 1.393 0 .518.042.983.126 1.393.083.41.21.757.378 1.041.168.284.38.501.637.65.256.15.557.225.903.225zm0-.681c-.226 0-.417-.055-.574-.165-.156-.11-.283-.274-.38-.492-.096-.219-.167-.492-.21-.82-.045-.328-.067-.712-.067-1.151 0-.44.022-.824.066-1.152.044-.328.115-.6.211-.817.097-.217.224-.38.38-.488.157-.108.348-.162.574-.162.226 0 .417.054.576.162.158.109.287.271.389.488.1.217.174.49.22.817.045.328.067.712.067 1.152 0 .442-.022.828-.068 1.158-.045.33-.118.602-.22.82-.1.216-.23.379-.388.487-.159.108-.35.163-.576.163zm4.465.68c.61 0 1.082-.123 1.42-.37.336-.248.505-.597.505-1.049 0-.225-.046-.419-.137-.58-.09-.16-.232-.306-.424-.435-.192-.129-.488-.268-.89-.417-.536-.205-.877-.366-1.024-.481-.146-.116-.22-.262-.22-.438 0-.181.086-.324.256-.428.17-.104.419-.156.747-.156.392 0 .833.102 1.322.307l.269-.628c-.478-.217-.99-.325-1.539-.325-.562 0-1.004.114-1.327.343-.322.228-.483.54-.483.936 0 .222.043.411.13.566.086.156.221.296.406.42.185.125.504.275.958.45.445.17.755.321.93.453.174.132.26.293.26.484 0 .216-.09.39-.272.518-.181.13-.471.194-.87.194-.492 0-1.003-.13-1.533-.387v.72c.375.203.88.304 1.516.304z"/>
                        <circle cx="14.4" cy="14.4" r="13.9" stroke="#FFF"/>
                    </g>
                </g>
            </g>
        </g>
    </g>
</svg>
